<?xml version="1.0" encoding="UTF-8"?>
<!DOCTYPE svg PUBLIC "-//W3C//DTD SVG 1.1//EN" "http://www.w3.org/Graphics/SVG/1.1/DTD/svg11.dtd">
<svg version="1.1" id="Layer_1" xmlns="http://www.w3.org/2000/svg" xmlns:xlink="http://www.w3.org/1999/xlink" x="0px" y="0px" width="32px" height="32px" viewBox="0 0 32 32" enable-background="new 0 0 32 32" xml:space="preserve">
  <g id="icon">
    <path d="M28.5,30.5H3.5V1.5h25V30.5z" fill="#FFFFFF" stroke="#383838" stroke-width="1" stroke-miterlimit="10"/>
    <path d="M7,9.5h6M7,11.5h9M7,13.5h7M7,15.5h9" fill="#FFFFFF" stroke="#383838" stroke-width="1" stroke-miterlimit="10"/>
    <path d="M19,9.5h6M20,11.5h5M19,13.5h6M20,15.5h5" fill="none" stroke="#787979" stroke-width="1" stroke-miterlimit="10"/>
    <path d="M6.5,27.5h19v-8H6.5V27.5z" fill="#FFFFFF" stroke="#ED8730" stroke-width="1" stroke-miterlimit="10"/>
    <rect x="6.5" y="4.5" width="19" height="2" fill="#92CBEE" stroke="#0964B0" stroke-width="1" stroke-linecap="round" stroke-miterlimit="10"/>
    <path d="M21.632,24.948c0.336,-0.348,0.458,-0.473,0.299,-0.931c-0.63,0.153,-2.886,1.625,-2.99,0.329c-0.631,0.54,-2.494,1.334,-2.56,0.117c-0.788,1.02,-2.56,0.878,-2.232,0.194c-1.116,0.683,-2.855,0.949,-4.149,0.806l0.159,-0.165c0.668,-0.681,2.039,-1.312,2.993,-1.75c-0.628,-0.026,-1.923,0.228,-1.716,-0.531c0.226,-0.828,2.333,-1.259,3.215,-1.395c1.297,-0.201,2.023,-0.194,1.916,0.336c-0.082,0.406,-0.722,0.566,-1.124,0.94" fill="none" stroke="#787979" stroke-width="1" stroke-linecap="round" stroke-miterlimit="10" stroke-linejoin="round"/>
  </g>
</svg>
